<svg xmlns="http://www.w3.org/2000/svg" viewBox="0 0 834.69 560.58"><defs><style>.cls-1{fill:#0d283c;}</style></defs><g id="Layer_2" data-name="Layer 2"><g id="Capa_1" data-name="Capa 1"><path class="cls-1" d="M470.33,484c-35.94,35-82.27,59.52-131.79,70.38A280.24,280.24,0,0,1,188,545.17c-48.3-16.71-91.64-47.31-124.26-86.81A280.92,280.92,0,0,1,151.09,31a286.63,286.63,0,0,1,35-15.25A277.55,277.55,0,0,1,336,6a271,271,0,0,1,36.32,10.31,284.22,284.22,0,0,1,34.37,15.34,282.17,282.17,0,0,0-35-13.43A274.89,274.89,0,0,0,261.06,7.05a273.4,273.4,0,0,0-71.94,16.89,303.85,303.85,0,0,0-33.51,15.54,269.58,269.58,0,0,0-31.06,19.88c-39.49,29.26-71.2,68.93-90.07,114.18a272.9,272.9,0,0,0,92.28,327.28c4.9,3.7,10.13,6.91,15.26,10.28,2.6,1.63,5.29,3.11,7.93,4.68l4,2.32,4.07,2.15a269.77,269.77,0,0,0,33.55,15.18c5.8,2,11.58,4.16,17.51,5.77,5.87,1.87,11.88,3.2,17.86,4.67a285.87,285.87,0,0,0,36.52,5.55A276.26,276.26,0,0,0,337.27,548a288.13,288.13,0,0,0,36.07-9,301.51,301.51,0,0,0,34.59-13.89,311.19,311.19,0,0,0,32.48-18.51A313.26,313.26,0,0,0,470.33,484Z"/><path class="cls-1" d="M329.92,145.85v-5.64H257a128.1,128.1,0,0,0-14,.91,105,105,0,0,0-20.42,4.5,74.17,74.17,0,0,0-18.82,9.18,51.45,51.45,0,0,0-14.56,15.13,37.65,37.65,0,0,0-4.64,10.52,18.16,18.16,0,0,0,.18,10.47q1.62,5,7.24,8.56a18.79,18.79,0,0,0,8.31,3,17.13,17.13,0,0,0,6.95-.51c1.85-.61,2.69-1.39,2.54-2.33a10.91,10.91,0,0,1-6.21-.21,25.89,25.89,0,0,1-7-3.14,23.89,23.89,0,0,1-3-2.26,17.15,17.15,0,0,1-2.38-2.57,18,18,0,0,1-3.05-10,19.93,19.93,0,0,1,3.68-11.55A41.27,41.27,0,0,1,204.43,157a61.51,61.51,0,0,1,16.51-7.33,96.66,96.66,0,0,1,18.37-3.27q9.15-.74,17.65-.57h.54l2.41.11c6.49.57,18.76,4.12,18.76,26.38v243.2C278.67,442,261.3,442,257,442v5.65h73V442c-4.35,0-21.72,0-21.72-26.49V172.34C308.2,145.85,325.57,145.85,329.92,145.85Z"/><path class="cls-1" d="M434.56,221.7h24.58v2.42c-1.86,0-9.31,0-9.31,11.36V353.57h-2.07L367.51,236.63V339.78c0,11.36,7.37,11.36,9.31,11.36v2.43H352.23v-2.43c1.86,0,9.32,0,9.32-11.36V235.3c0-11.18-7.44-11.18-9.32-11.18V221.7H364.8A16.6,16.6,0,0,1,378.53,229l65.34,96.37V235.48c0-11.36-7.45-11.36-9.31-11.36Z"/><path class="cls-1" d="M552.64,221.7h24.58v2.42c-1.86,0-9.31,0-9.31,11.36V353.57h-2.07L485.59,236.63V339.78c0,11.36,7.37,11.36,9.31,11.36v2.43H470.31v-2.43c1.87,0,9.32,0,9.32-11.36V235.3c0-11.18-7.44-11.18-9.32-11.18V221.7h12.57A16.6,16.6,0,0,1,496.61,229L562,325.35V235.48c0-11.36-7.45-11.36-9.31-11.36Z"/><path class="cls-1" d="M673.6,221.7h28.33v2.42c-1.86,0-9.46.13-13.45,11.59L647.4,353.56H635.24L596.16,235.69c-3.46-10.45-11.49-11.57-13.35-11.57V221.7H594a16.59,16.59,0,0,1,15.8,11.52L645,342.94l37.55-107.68c2.59-7.42-.78-11.12-9-11.12Z"/><path class="cls-1" d="M707.59,353.57v-2.43c1.87,0,9.32,0,9.32-11.36V235.48c0-11.36-7.45-11.36-9.32-11.36V221.7h31.29v2.42c-1.86,0-9.31,0-9.31,11.36v104.3c0,11.36,7.45,11.36,9.31,11.36v2.43Z"/><path class="cls-1" d="M747.45,353.56v-2.42c1.86,0,9.31,0,9.31-11.36V235.47c0-11.36-7.45-11.36-9.31-11.36v-2.42H828.9l4,22H830.5c-1.14-6.09-3.39-16.76-15.25-16.76H769.43v37.81h40.23c12.18,0,11.32-5.53,11.36-9.31h2.42v23.84H821c-.06-3.76.8-9.31-11.36-9.31H769.43v78.41h40.23c18.14,0,21.43-26,22.61-41.16h2.42l-3.86,46.38Z"/><path class="cls-1" d="M467.56,392.1a8.38,8.38,0,0,1-1.23,4.55,8.22,8.22,0,0,1-3.51,3.06,12.53,12.53,0,0,1-5.49,1.09,25,25,0,0,1-5.37-.62,17.79,17.79,0,0,1-5.56-2.37l1.34-3.3a19.43,19.43,0,0,0,5.22,2.12,20.18,20.18,0,0,0,4.37.56,7,7,0,0,0,4.51-1.34,4.79,4.79,0,0,0,.49-6.74,8.85,8.85,0,0,0-3.7-2.19l-4.06-1.29a13.58,13.58,0,0,1-5.74-3.35,7.11,7.11,0,0,1-1.89-5,8.55,8.55,0,0,1,1.18-4.53,7.84,7.84,0,0,1,3.41-3,12.24,12.24,0,0,1,5.31-1.07,23.15,23.15,0,0,1,5.11.6,16.54,16.54,0,0,1,5.2,2.21l-1.34,3.3a16.29,16.29,0,0,0-4.79-2,20.08,20.08,0,0,0-4.13-.49,6.88,6.88,0,0,0-4.33,1.25A4.18,4.18,0,0,0,451,377a3.86,3.86,0,0,0,1.12,2.75,8.51,8.51,0,0,0,3.52,2l4,1.33a13.9,13.9,0,0,1,6,3.55A8,8,0,0,1,467.56,392.1Z"/><path class="cls-1" d="M496.66,372.73H486.3v27.63h-3.93V372.73H472l.49-3.62h23.65Z"/><path class="cls-1" d="M500.94,400.36h-4.06l12.59-31.25H513l12.72,31.25h-4.33l-3.08-7.59H504.06Zm4.37-10.94H517l-5.85-15.22Z"/><path class="cls-1" d="M552.31,369.11,540.62,388v12.37h-3.93V388.08l-11.83-19h4.56l9.23,15,9.24-15Z"/><path class="cls-1" d="M590,400.36l-4-3.93a14.17,14.17,0,0,1-4.4,3.23,12.08,12.08,0,0,1-5.2,1.14,12.56,12.56,0,0,1-5-1,8.79,8.79,0,0,1-3.55-2.67,7.25,7.25,0,0,1-1.45-4,5,5,0,0,1,.05-1.16,7.46,7.46,0,0,1,1.78-4.33A17.53,17.53,0,0,1,572.8,384l.24-.18a.89.89,0,0,1,.25-.14,18.24,18.24,0,0,1-2.52-3.43,9.49,9.49,0,0,1-1.1-3.13,7.82,7.82,0,0,1,0-2.05,6.37,6.37,0,0,1,1.21-3.3,7.29,7.29,0,0,1,2.65-2.19,8.66,8.66,0,0,1,3.64-.85,10,10,0,0,1,1.34,0,8.42,8.42,0,0,1,3.35,1A6.34,6.34,0,0,1,584.2,372a6,6,0,0,1,.87,3.23,8.07,8.07,0,0,1-1.34,4.29,13.36,13.36,0,0,1-4.42,4.06,4.62,4.62,0,0,1-.4.27,4.62,4.62,0,0,0-.4.27l.31.35,7.41,7.28a18.49,18.49,0,0,0,1.81-3.82,27.76,27.76,0,0,0,1.14-4.57l2.94.85a27.88,27.88,0,0,1-1.43,5.35,19.48,19.48,0,0,1-2.32,4.42l6.43,6.43Zm-19.81-8a4.55,4.55,0,0,0,.85,2.74,5.58,5.58,0,0,0,2.32,1.85,8.32,8.32,0,0,0,3.3.72,8.73,8.73,0,0,0,2-.22,9.34,9.34,0,0,0,5.23-3.22l-8.57-8.52a1.45,1.45,0,0,0-.23.15,1.06,1.06,0,0,1-.22.16,20.53,20.53,0,0,0-2.7,2,6,6,0,0,0-1.5,2A5.85,5.85,0,0,0,570.21,392.37Zm2.94-16.65a6.35,6.35,0,0,0,.27,1.81,6.74,6.74,0,0,0,1,2,22.25,22.25,0,0,0,2.1,2.5l.29-.2a1,1,0,0,1,.33-.15,11.07,11.07,0,0,0,3.53-3.08,5.7,5.7,0,0,0,1-3.13,3.51,3.51,0,0,0-1.22-2.79,4.37,4.37,0,0,0-2.93-1.05,4.66,4.66,0,0,0-3.12,1.1A3.71,3.71,0,0,0,573.15,375.72Z"/><path class="cls-1" d="M613.81,384.74a14.93,14.93,0,0,0,1.34,6.47,10.49,10.49,0,0,0,3.75,4.39,10,10,0,0,0,5.62,1.59,12.5,12.5,0,0,0,4.33-.74,10.22,10.22,0,0,0,3.53-2.16l2.19,2.81a13.27,13.27,0,0,1-4.56,2.77,16.34,16.34,0,0,1-5.58.93,14.42,14.42,0,0,1-7.72-2,13.63,13.63,0,0,1-5.11-5.64,18.6,18.6,0,0,1-1.8-8.39,18,18,0,0,1,1.85-8.35,13.81,13.81,0,0,1,12.78-7.72,16.08,16.08,0,0,1,5.63,1,13.42,13.42,0,0,1,4.51,2.74l-2.19,2.81a10.11,10.11,0,0,0-3.57-2.16,12.65,12.65,0,0,0-4.29-.74,10,10,0,0,0-5.62,1.57,10.37,10.37,0,0,0-3.75,4.37A15,15,0,0,0,613.81,384.74Z"/><path class="cls-1" d="M642.78,400.36h-4.06l12.58-31.25h3.53l12.72,31.25h-4.33l-3.08-7.59H645.9Zm4.37-10.94h11.7L653,374.2Z"/><path class="cls-1" d="M707.14,369.11l1.47,31.25h-3.88l-.49-10-.49-13.61-10.58,23.57h-3.71l-10.57-23.79-.54,13.83-.49,10H674l1.51-31.25h3.84l12,27,12-27Z"/><path class="cls-1" d="M718.61,400.36V369.11h11.47a11.41,11.41,0,0,1,5.49,1.28,9.5,9.5,0,0,1,3.72,3.5,10.56,10.56,0,0,1,0,10.44,9.86,9.86,0,0,1-3.84,3.57,11.75,11.75,0,0,1-5.65,1.3h-7.23v11.16Zm11.15-27.81h-7.23v13.21h7.23a6.61,6.61,0,0,0,4.85-1.83,6.48,6.48,0,0,0,1.85-4.82,6.3,6.3,0,0,0-1.88-4.75A6.61,6.61,0,0,0,729.76,372.55Z"/><path class="cls-1" d="M466.71,430.85a48.24,48.24,0,0,1,0,47.88,48.24,48.24,0,0,1,0-47.88m0-7.6a52.38,52.38,0,0,0,0,63.08,52.38,52.38,0,0,0,0-63.08Z"/><path class="cls-1" d="M523.2,487.33a48.26,48.26,0,0,1-47.89,0,48.26,48.26,0,0,1,47.89,0m7.59,0a52.38,52.38,0,0,0-63.08,0,52.38,52.38,0,0,0,63.08,0Z"/><path class="cls-1" d="M508.81,445.23a33.59,33.59,0,0,0,0,19.9,33.59,33.59,0,0,0-19.9,0,33.59,33.59,0,0,0,0-19.9,33.43,33.43,0,0,0,19.9,0m6.93-6.93C502.1,444,495.62,444,482,438.3c5.65,13.64,5.65,20.12,0,33.76,13.64-5.65,20.12-5.65,33.76,0-5.65-13.64-5.65-20.12,0-33.76Z"/></g></g></svg>